# xmcd
#
# Track frame offsets:
#	150
#	27166
#	49814
#	68209
#	90185
#	110908
#	147982
#	180215
#	204275
#	222304
#	242868
#	269228
#	291653
#	319187
#
# Disc length: 4683 seconds
#
# Revision: 1
# Processed by: cddbd v1.5.2PL0 Copyright (c) Steve Scherf et al.
# Submitted via: audiograbber 1.83.01
#
DISCID=db12490e
DTITLE=Blues Company - Old, New, Borrowed But Blues (40 Years On The Blues High
DTITLE=way)
DYEAR=2016
DGENRE=Blues
TTITLE0=Got To Move On [new] [live]
TTITLE1=Brother, Where Are You [borrowed] [live]
TTITLE2=Move To The Groove [new] [live]
TTITLE3=The River [old] [live]
TTITLE4=Messin' With The Kid [borrowed] [live]
TTITLE5=The Hideaway/Peter Gunn Theme [old] [live]
TTITLE6=Black Night [old] [live]
TTITLE7=Gangster Of Love [borrowed] [live]
TTITLE8=T's Boogie [new] [live]
TTITLE9=A Little Bit Of That [old] [live]
TTITLE10=Baby, Please Don't Go/I'm A King Bee [borrowed] [live]
TTITLE11=Luka's Lullaby [new] [live]
TTITLE12=Kidney Stew [borrowed] [live]
TTITLE13=Walkin' Blues [borrowed] [live]
EXTD=
EXTT0=
EXTT1=
EXTT2=
EXTT3=
EXTT4=
EXTT5=
EXTT6=
EXTT7=
EXTT8=
EXTT9=
EXTT10=
EXTT11=
EXTT12=
EXTT13=
PLAYORDER=
